<?xml version="1.0" encoding="UTF-8"?><svg id="a" xmlns="http://www.w3.org/2000/svg" viewBox="0 0 300 300"><defs><style>.b{fill:#fff;}.c{fill:#55a05e;}</style></defs><rect class="c" y="0" width="300" height="300"/><g><path class="b" d="M79.92,163.42c0,26.08,11.99,42.04,30.26,42.04s29.71-15.96,29.71-42.04c0-27.95-11.33-42.26-29.71-42.26s-30.26,14.31-30.26,42.26Zm85.28,0c0,33.67-24.32,57.22-55.24,57.22s-55.35-23.55-55.35-57.22,24.76-57.22,55.35-57.22,55.24,23.55,55.24,57.22Z"/><path class="b" d="M216.9,194.17c0,7.28,2.63,9.91,9.88,9.91l18.61,.11v14.52h-26.5c-15.4,0-24.21-8.79-24.21-24.19v-52.47h-.02v-17.81h-22.08v-12.82c1.47,0,.99-.02,3-.07,3.58-.05,6.28-.15,8.14-.3,4.62-.25,7.7-1.14,9.24-2.68,1.51-1.51,2.53-4.67,3.08-9.44,.4-2.63,.7-5.91,.89-9.83,.2-3.9,.3-9.1,.3-9.74h19.67v29.38h28.49v15.51h-28.49v69.93Z"/></g></svg>